<?xml version="1.0" encoding="UTF-8" standalone="no"?>
<svg
   version="1.0"
   width="300.000000pt"
   height="100.000000pt"
   viewBox="0 0 300.000000 100.000000"
   preserveAspectRatio="xMidYMid meet"
   id="svg137"
   sodipodi:docname="msi_logo.svg"
   inkscape:version="1.1 (c4e8f9e, 2021-05-24)"
   xmlns:inkscape="http://www.inkscape.org/namespaces/inkscape"
   xmlns:sodipodi="http://sodipodi.sourceforge.net/DTD/sodipodi-0.dtd"
   xmlns="http://www.w3.org/2000/svg"
   xmlns:svg="http://www.w3.org/2000/svg">
  <defs
     id="defs141" />
  <sodipodi:namedview
     id="namedview139"
     pagecolor="#ffffff"
     bordercolor="#666666"
     borderopacity="1.0"
     inkscape:pageshadow="2"
     inkscape:pageopacity="0.0"
     inkscape:pagecheckerboard="0"
     inkscape:document-units="pt"
     showgrid="false"
     inkscape:zoom="1.3250032"
     inkscape:cx="146.03738"
     inkscape:cy="113.58463"
     inkscape:window-width="1296"
     inkscape:window-height="847"
     inkscape:window-x="0"
     inkscape:window-y="25"
     inkscape:window-maximized="0"
     inkscape:current-layer="svg137" />
  <path
     d="m 163.8,9.5 c -15.7,4.3 -23.5,16.1 -19.7,29.8 2.4,8.8 10.4,13.9 29.2,18.6 6.2,1.6 12.4,3.3 13.9,3.9 3.6,1.5 5.2,4.6 3.8,7.2 -3.4,6.4 -21.3,4.9 -23.5,-2 -0.6,-2 -1.2,-2 -13.3,-1.8 l -12.7,0.3 0.3,2.9 c 0.4,3.6 4,9.4 8.4,13.2 7.9,7 19.3,10 33.3,9 20.4,-1.5 31.7,-9.7 33.2,-24 1,-9.9 -3,-16.7 -12.9,-21.7 -2.2,-1.1 -9.7,-3.5 -16.7,-5.3 -15,-3.9 -16.9,-4.8 -17.7,-8.3 -0.5,-2 -0.2,-3.1 1.6,-4.5 4.1,-3.3 15.2,-1.6 17.2,2.8 1.1,2.4 1.3,2.4 13.9,2.4 h 12.8 L 214,28.9 C 211.3,19.6 204.1,12.6 194,9.6 187.5,7.7 170.7,7.6 163.8,9.5 Z"
     id="path113"
     style="fill:#f23947;stroke:none;stroke-width:0.1;fill-opacity:1" />
  <path
     d="M 42,49 V 89 H 54.7 67.3 L 66.7,66.7 C 66.3,54.5 65.7,43.4 65.4,42 65,40.6 65.1,39.8 65.5,40.2 c 0.4,0.4 4,11.4 7.9,24.5 l 7.1,23.8 9.7,0.3 9.7,0.3 2.4,-8.3 c 1.4,-4.6 4.7,-15.5 7.3,-24.3 2.5,-8.8 4.7,-16.1 4.8,-16.2 0.1,-0.1 0,10.8 -0.2,24.2 L 113.8,89 H 125.9 138 V 49 9 H 121.6 105.3 L 98,33.5 C 93.9,47 90.4,57.7 90.1,57.4 89.8,57.1 86.3,46.2 82.5,33.2 L 75.4,9.5 58.7,9.2 42,9 Z"
     id="path115"
     style="fill:#000000;stroke:none;stroke-width:0.1" />
  <path
     d="m 220,49 v 40 h 14 14 L 247.8,49.3 247.5,9.5 233.8,9.2 220,8.9 Z"
     id="path117"
     style="fill:#000000;stroke:none;stroke-width:0.1" />
</svg>
