<?xml version="1.0" encoding="UTF-8" standalone="no"?>
<svg
   width="196px"
   height="32px"
   viewBox="0 0 196 32"
   version="1.1"
   id="svg8116"
   sodipodi:docname="tsh_logo_dark.svg"
   inkscape:version="1.1 (c4e8f9e, 2021-05-24)"
   xmlns:inkscape="http://www.inkscape.org/namespaces/inkscape"
   xmlns:sodipodi="http://sodipodi.sourceforge.net/DTD/sodipodi-0.dtd"
   xmlns="http://www.w3.org/2000/svg"
   xmlns:svg="http://www.w3.org/2000/svg"
   xmlns:rdf="http://www.w3.org/1999/02/22-rdf-syntax-ns#"
   xmlns:cc="http://creativecommons.org/ns#"
   xmlns:dc="http://purl.org/dc/elements/1.1/">
  <sodipodi:namedview
     id="namedview8118"
     pagecolor="#ffffff"
     bordercolor="#666666"
     borderopacity="1.0"
     inkscape:pageshadow="2"
     inkscape:pageopacity="0.0"
     inkscape:pagecheckerboard="0"
     showgrid="false"
     inkscape:zoom="4.947354"
     inkscape:cx="57.707615"
     inkscape:cy="11.420246"
     inkscape:window-width="1296"
     inkscape:window-height="847"
     inkscape:window-x="0"
     inkscape:window-y="25"
     inkscape:window-maximized="0"
     inkscape:current-layer="svg8116" />
  <title
     id="title8102">Logo</title>
  <defs
     id="defs8109">
    <linearGradient
       x1="19.358062"
       y1="12.320294"
       x2="0.22730972"
       y2="25.454403"
       id="linearGradient-1"
       gradientTransform="scale(1.0846523,0.92195445)"
       gradientUnits="userSpaceOnUse">
      <stop
         stop-color="#FF9C00"
         offset="0%"
         id="stop8104" />
      <stop
         stop-color="#FFB222"
         offset="100%"
         id="stop8106" />
    </linearGradient>
  </defs>
  <path
     d="m 33.654,25 c 0.066,0 0.132,-0.066 0.132,-0.132 l -0.044,-7.436 0.044,-6.886 h 4.356 c 0.066,0 0.132,-0.066 0.132,-0.132 V 9.732 C 38.274,9.666 38.208,9.6 38.142,9.6 h -9.878 c -0.066,0 -0.132,0.066 -0.132,0.132 v 0.682 c 0,0.066 0.066,0.132 0.132,0.132 h 4.356 l 0.044,6.886 -0.044,7.436 c 0,0.066 0.066,0.132 0.132,0.132 z m 6.292,-12.694 c 0.066,0 0.132,-0.066 0.132,-0.132 v -1.298 c 0,-0.066 -0.066,-0.132 -0.132,-0.132 h -0.858 c -0.066,0 -0.132,0.066 -0.132,0.132 v 1.298 c 0,0.066 0.066,0.132 0.132,0.132 z m 0,12.694 c 0.066,0 0.132,-0.066 0.132,-0.132 l -0.044,-5.874 0.044,-5.192 c 0,-0.066 -0.066,-0.132 -0.132,-0.132 h -0.858 c -0.066,0 -0.132,0.066 -0.132,0.132 l 0.022,5.214 -0.022,5.852 c 0,0.066 0.066,0.132 0.132,0.132 z m 2.926,0 c 0.066,0 0.132,-0.066 0.132,-0.132 L 42.96,17.102 43.004,9.732 C 43.004,9.666 42.938,9.6 42.872,9.6 h -0.836 c -0.066,0 -0.132,0.066 -0.132,0.132 l 0.044,7.414 -0.044,7.722 c 0,0.066 0.066,0.132 0.132,0.132 z m 6.71,0.22 c 2.948,0 4.554,-2.662 4.554,-5.918 0,-3.3 -1.584,-5.852 -4.532,-5.852 -1.76,0 -3.036,0.902 -3.762,2.354 L 45.864,9.732 C 45.864,9.666 45.798,9.6 45.732,9.6 h -0.858 c -0.066,0 -0.132,0.066 -0.132,0.132 l 0.044,6.204 -0.044,8.91 c 0,0.066 0.066,0.132 0.132,0.132 h 0.836 c 0.066,0 0.132,-0.066 0.132,-0.132 l -0.044,-2.09 c 0.704,1.606 2.024,2.464 3.784,2.464 z m -0.22,-0.858 c -2.288,0 -3.652,-1.914 -3.63,-5.17 0.022,-3.234 1.474,-4.884 3.652,-4.884 2.53,0 3.63,2.266 3.63,5.104 0,2.772 -1.122,4.95 -3.652,4.95 z m 9.57,0.902 c 1.958,0 3.212,-1.32 3.872,-2.596 l -0.066,2.2 c 0,0.066 0.066,0.132 0.132,0.132 h 0.836 c 0.066,0 0.132,-0.066 0.132,-0.132 l -0.044,-6.226 0.044,-4.84 c 0,-0.066 -0.066,-0.132 -0.132,-0.132 h -0.858 c -0.066,0 -0.132,0.066 -0.132,0.132 l 0.022,4.73 v 2.464 c -0.748,2.068 -1.892,3.344 -3.586,3.344 -1.716,0 -2.838,-1.034 -2.838,-3.762 v -2.046 l 0.022,-4.73 c 0,-0.066 -0.066,-0.132 -0.132,-0.132 h -0.858 c -0.066,0 -0.132,0.066 -0.132,0.132 l 0.022,4.73 v 2.156 c 0,3.102 1.408,4.576 3.696,4.576 z M 66.434,25 c 0.066,0 0.132,-0.066 0.132,-0.132 l -0.022,-6.82 c 0.33,-2.464 2.002,-3.564 3.652,-3.564 0.33,0 0.616,0.022 0.836,0.088 0.066,0.022 0.132,-0.022 0.132,-0.088 v -0.682 c 0,-0.066 -0.066,-0.154 -0.132,-0.176 -0.242,-0.066 -0.506,-0.088 -0.814,-0.088 -1.54,0 -2.97,0.858 -3.718,2.354 l 0.066,-2.09 c 0,-0.066 -0.066,-0.132 -0.132,-0.132 h -0.836 c -0.066,0 -0.132,0.066 -0.132,0.132 l 0.044,5.346 -0.044,5.72 c 0,0.066 0.066,0.132 0.132,0.132 z m 8.822,4.246 c 2.86,0 4.664,-1.826 4.642,-5.39 l -0.022,-6.71 0.044,-3.344 c 0,-0.066 -0.066,-0.132 -0.132,-0.132 h -0.836 c -0.066,0 -0.132,0.066 -0.132,0.132 l 0.044,2.112 c -0.704,-1.584 -1.98,-2.442 -3.718,-2.442 -3.014,0 -4.62,2.618 -4.62,5.874 0,3.256 1.584,5.61 4.62,5.61 1.738,0 3.014,-0.88 3.718,-2.376 v 1.276 c 0,3.168 -1.452,4.532 -3.608,4.532 -1.76,0 -3.19,-0.748 -3.41,-2.596 -0.022,-0.066 -0.088,-0.132 -0.154,-0.132 h -0.814 c -0.066,0 -0.132,0.066 -0.132,0.132 0.198,2.464 2.156,3.476 4.51,3.454 z M 75.41,24.12 c -2.552,0.022 -3.784,-1.804 -3.784,-4.796 0,-2.926 1.21,-5.038 3.652,-5.038 2.31,0 3.652,1.936 3.63,5.148 -0.022,3.19 -1.474,4.664 -3.498,4.686 z m 15.466,1.188 c 3.762,0 6.248,-1.694 6.248,-4.906 0,-6.05 -9.966,-3.234 -9.966,-6.82 0,-1.474 1.298,-2.134 3.168,-2.134 2.2,0 3.388,0.88 3.564,2.53 0.022,0.11 0.11,0.176 0.198,0.176 h 2.464 c 0.088,0 0.176,-0.088 0.154,-0.176 -0.396,-3.234 -2.728,-4.686 -6.292,-4.686 -3.674,0 -5.918,1.716 -5.918,4.554 0,6.028 9.944,3.124 9.944,6.93 0,1.716 -1.364,2.398 -3.498,2.398 -2.772,0 -3.74,-1.254 -3.916,-3.234 -0.022,-0.088 -0.11,-0.176 -0.198,-0.176 h -2.464 c -0.088,0 -0.176,0.088 -0.176,0.176 0.154,3.608 2.706,5.368 6.688,5.368 z m 12.364,-0.044 c 2.948,0 4.884,-1.848 5.104,-4.4 0.022,-0.088 -0.066,-0.176 -0.154,-0.176 h -2.156 c -0.088,0 -0.176,0.066 -0.198,0.176 -0.132,1.628 -1.122,2.552 -2.552,2.53 -1.936,-0.022 -2.882,-1.32 -2.882,-4.048 0,-2.64 0.924,-4.048 2.882,-4.048 1.254,0 2.2,0.726 2.464,2.178 0.022,0.11 0.11,0.176 0.198,0.176 h 2.09 c 0.088,0 0.176,-0.088 0.154,-0.176 -0.242,-2.442 -2.046,-4.07 -4.906,-4.07 -3.564,0 -5.588,2.376 -5.588,5.962 0,3.586 2.024,5.896 5.544,5.896 z m 8.514,-12.76 c 0.088,0 0.176,-0.088 0.176,-0.176 v -2.266 c 0,-0.088 -0.088,-0.176 -0.176,-0.176 h -2.332 c -0.088,0 -0.176,0.088 -0.176,0.176 v 2.266 c 0,0.088 0.088,0.176 0.176,0.176 z M 111.776,25 c 0.088,0 0.176,-0.088 0.176,-0.176 l -0.066,-5.566 0.066,-5.412 c 0,-0.088 -0.088,-0.176 -0.176,-0.176 h -2.354 c -0.088,0 -0.176,0.088 -0.176,0.176 l 0.044,5.412 -0.044,5.566 c 0,0.088 0.088,0.176 0.176,0.176 z m 6.776,0.264 c 3.036,0 4.906,-1.782 5.214,-3.96 0.022,-0.088 -0.066,-0.176 -0.154,-0.176 h -2.2 c -0.088,0 -0.198,0.066 -0.22,0.176 -0.308,1.408 -1.21,2.09 -2.596,2.09 -1.914,0 -2.904,-1.144 -3.014,-3.564 h 8.272 c 0.088,0 0.176,-0.088 0.176,-0.176 -0.066,-3.872 -2.046,-6.248 -5.566,-6.248 -3.432,0 -5.522,2.376 -5.522,5.962 0,3.454 1.958,5.896 5.61,5.896 z m 2.618,-7.216 h -5.5 c 0.286,-1.826 1.232,-2.794 2.816,-2.794 1.738,0 2.574,1.32 2.684,2.794 z M 127.462,25 c 0.088,0 0.176,-0.088 0.176,-0.176 l -0.044,-4.642 V 18.95 c 0.22,-2.354 1.474,-3.476 2.794,-3.476 1.21,0 2.068,0.836 2.068,2.442 v 2.266 l -0.044,4.642 c 0,0.088 0.088,0.176 0.176,0.176 h 2.332 c 0.088,0 0.176,-0.088 0.176,-0.176 l -0.044,-4.642 V 17.85 c 0,-2.86 -1.518,-4.444 -3.872,-4.444 -1.694,0 -2.992,0.858 -3.718,1.914 l 0.066,-1.474 c 0,-0.088 -0.088,-0.176 -0.176,-0.176 h -2.222 c -0.088,0 -0.176,0.088 -0.176,0.176 l 0.022,5.83 -0.066,5.148 c 0,0.088 0.088,0.176 0.176,0.176 z m 13.992,0.264 c 2.948,0 4.884,-1.848 5.104,-4.4 0.022,-0.088 -0.066,-0.176 -0.154,-0.176 h -2.156 c -0.088,0 -0.176,0.066 -0.198,0.176 -0.132,1.628 -1.122,2.552 -2.552,2.53 -1.936,-0.022 -2.882,-1.32 -2.882,-4.048 0,-2.64 0.924,-4.048 2.882,-4.048 1.254,0 2.2,0.726 2.464,2.178 0.022,0.11 0.11,0.176 0.198,0.176 h 2.09 c 0.088,0 0.176,-0.088 0.154,-0.176 -0.242,-2.442 -2.046,-4.07 -4.906,-4.07 -3.564,0 -5.588,2.376 -5.588,5.962 0,3.586 2.024,5.896 5.544,5.896 z m 11.242,0 c 3.036,0 4.906,-1.782 5.214,-3.96 0.022,-0.088 -0.066,-0.176 -0.154,-0.176 h -2.2 c -0.088,0 -0.198,0.066 -0.22,0.176 -0.308,1.408 -1.21,2.09 -2.596,2.09 -1.914,0 -2.904,-1.144 -3.014,-3.564 h 8.272 c 0.088,0 0.176,-0.088 0.176,-0.176 -0.066,-3.872 -2.046,-6.248 -5.566,-6.248 -3.432,0 -5.522,2.376 -5.522,5.962 0,3.454 1.958,5.896 5.61,5.896 z m 2.618,-7.216 h -5.5 c 0.286,-1.826 1.232,-2.794 2.816,-2.794 1.738,0 2.574,1.32 2.684,2.794 z M 161.738,25 c 0.088,0 0.176,-0.088 0.176,-0.176 l -0.066,-6.996 h 7.458 l -0.066,6.996 c 0,0.088 0.088,0.176 0.176,0.176 h 2.42 c 0.088,0 0.176,-0.088 0.176,-0.176 l -0.088,-7.48 0.088,-7.568 c 0,-0.088 -0.088,-0.176 -0.176,-0.176 h -2.42 c -0.088,0 -0.176,0.088 -0.176,0.176 l 0.044,5.94 h -7.414 l 0.044,-5.94 c 0,-0.088 -0.088,-0.176 -0.176,-0.176 h -2.398 c -0.088,0 -0.176,0.088 -0.176,0.176 l 0.088,7.568 -0.088,7.48 c 0,0.088 0.088,0.176 0.176,0.176 z m 15.378,0.264 c 1.694,0 2.97,-0.858 3.718,-1.914 l -0.066,1.474 c 0,0.088 0.088,0.176 0.176,0.176 h 2.222 c 0.088,0 0.176,-0.088 0.176,-0.176 l -0.022,-5.83 0.044,-5.148 c 0,-0.088 -0.088,-0.176 -0.176,-0.176 h -2.354 c -0.088,0 -0.176,0.088 -0.176,0.176 l 0.022,4.642 v 1.232 c -0.22,2.354 -1.452,3.476 -2.794,3.476 -1.188,0 -2.046,-0.836 -2.046,-2.442 v -2.266 l 0.044,-4.642 c 0,-0.088 -0.088,-0.176 -0.176,-0.176 h -2.332 c -0.088,0 -0.176,0.088 -0.176,0.176 l 0.044,4.642 v 2.332 c 0,2.86 1.496,4.444 3.872,4.444 z m 13.508,-0.044 c 3.036,0 4.84,-2.64 4.84,-5.918 0,-3.3 -1.65,-5.852 -4.796,-5.852 -1.496,0 -2.64,0.616 -3.432,1.694 l 0.022,-5.368 c 0,-0.088 -0.088,-0.176 -0.176,-0.176 h -2.332 c -0.088,0 -0.176,0.088 -0.176,0.176 l 0.066,7.194 -0.066,7.854 c 0,0.088 0.088,0.176 0.176,0.176 h 2.332 c 0.088,0 0.176,-0.088 0.176,-0.176 l -0.066,-1.276 c 0.77,1.1 1.936,1.672 3.432,1.672 z m -0.726,-1.914 c -1.782,-0.022 -2.794,-1.474 -2.772,-4.092 0.022,-2.552 1.056,-3.85 2.838,-3.85 1.848,-0.022 2.794,1.496 2.794,4.07 0,2.398 -0.924,3.916 -2.86,3.872 z"
     id="TilburgScienceHub"
     fill="#003365"
     style="fill-rule:nonzero;stroke:none;stroke-width:1;opacity:1;fill:#f9f9f9;fill-opacity:1" />
  <path
     d="m 18.769273,23.570946 c 0.679712,0 1.230727,0.543611 1.230727,1.214189 0,0.670579 -0.551015,1.21419 -1.230727,1.21419 v 0 H 8.923456 c -0.6797118,0 -1.2307271,-0.543611 -1.2307271,-1.21419 0,-0.670578 0.5510153,-1.214189 1.2307271,-1.214189 v 0 z M 0.3606721,9.3558256 c 0.4808961,-0.4744341 1.2605827,-0.4744341 1.7414789,0 v 0 l 7.3843626,7.2851354 c 0.2307473,0.2279 0.3602445,0.536919 0.3599881,0.859039 2.564e-4,0.32212 -0.1292408,0.631139 -0.3599881,0.859039 v 0 L 2.102151,25.644174 c -0.4808962,0.474434 -1.26058281,0.474434 -1.74147892,0 -0.48089611,-0.474434 -0.48089611,-1.243643 0,-1.718077 v 0 L 6.8866026,17.5 0.36067208,11.073903 c -0.4808961,-0.474434 -0.48089609,-1.2436434 2e-8,-1.7180774 z"
     id="Combined-Shape"
     fill="url(#linearGradient-1)"
     style="fill:url(#linearGradient-1);fill-rule:nonzero;stroke:none;stroke-width:1" />
  <metadata
     id="metadata8136">
    <rdf:RDF>
      <cc:Work
         rdf:about="">
        <dc:title>Logo</dc:title>
      </cc:Work>
    </rdf:RDF>
  </metadata>
</svg>
